<svg id="kity_svg_6" xmlns="http://www.w3.org/2000/svg" xmlns:xlink="http://www.w3.org/1999/xlink" version="1.1" width="951" height="1460" style="background: rgb(251, 251, 251); visibility: visible;" viewBox="0 0 951 1460"><defs id="kity_defs_7"><linearGradient id="kity_linearGradient_17" x1="0" y1="0" x2="0" y2="1"><stop id="kity_stop_18" offset="0" stop-color="rgb(255, 255, 255)"></stop><stop id="kity_stop_19" offset="1" stop-color="rgb(204, 204, 204)"></stop></linearGradient><marker id="kity_marker_2" orient="auto" refX="6" refY="0" viewBox="-7 -7 14 14" markerWidth="7" markerHeight="7" markerUnits="userSpaceOnUse"><path id="kity_path_3" fill="rgb(115, 191, 118)" stroke="none" d="M6,0A6,6,0,1,1,-6,0A6,6,0,1,1,6,0"></path></marker></defs><g id="kity_g_8"><g id="minder1" text-rendering="optimize-speed"><g id="minder_connect_group1"><path id="kity_path_31" fill="none" stroke="rgb(115, 191, 118)" stroke-width="1" d="M70.5,743.5A66,610,0,0,1,136.5,133.5"></path><path id="kity_path_33" fill="none" stroke="rgb(115, 191, 118)" stroke-width="1" d="M286.5,133.5C294.5,133.5,294.5,29.5,302.5,29.5"></path><path id="kity_path_35" fill="none" stroke="rgb(115, 191, 118)" stroke-width="1" d="M286.5,133.5C294.5,133.5,294.5,55.5,302.5,55.5"></path><path id="kity_path_37" fill="none" stroke="rgb(115, 191, 118)" stroke-width="1" d="M286.5,133.5C294.5,133.5,294.5,81.5,302.5,81.5"></path><path id="kity_path_39" fill="none" stroke="rgb(115, 191, 118)" stroke-width="1" d="M286.5,133.5C294.5,133.5,294.5,107.5,302.5,107.5"></path><path id="kity_path_41" fill="none" stroke="rgb(115, 191, 118)" stroke-width="1" d="M286.5,133.5C294.5,133.5,294.5,133.5,302.5,133.5"></path><path id="kity_path_43" fill="none" stroke="rgb(115, 191, 118)" stroke-width="1" d="M286.5,133.5C294.5,133.5,294.5,159.5,302.5,159.5"></path><path id="kity_path_45" fill="none" stroke="rgb(115, 191, 118)" stroke-width="1" d="M286.5,133.5C294.5,133.5,294.5,185.5,302.5,185.5"></path><path id="kity_path_47" fill="none" stroke="rgb(115, 191, 118)" stroke-width="1" d="M286.5,133.5C294.5,133.5,294.5,211.5,302.5,211.5"></path><path id="kity_path_49" fill="none" stroke="rgb(115, 191, 118)" stroke-width="1" d="M286.5,133.5C294.5,133.5,294.5,237.5,302.5,237.5"></path><path id="kity_path_51" fill="none" stroke="rgb(115, 191, 118)" stroke-width="1" d="M70.5,743.5A66,400,0,0,1,136.5,343.5"></path><path id="kity_path_53" fill="none" stroke="rgb(115, 191, 118)" stroke-width="1" d="M300.5,343.5C308.5,343.5,308.5,298.5,316.5,298.5"></path><path id="kity_path_55" fill="none" stroke="rgb(115, 191, 118)" stroke-width="1" d="M435.5,298.5C443.5,298.5,443.5,272.5,451.5,272.5"></path><path id="kity_path_57" fill="none" stroke="rgb(115, 191, 118)" stroke-width="1" d="M435.5,298.5C443.5,298.5,443.5,298.5,451.5,298.5"></path><path id="kity_path_59" fill="none" stroke="rgb(115, 191, 118)" stroke-width="1" d="M435.5,298.5C443.5,298.5,443.5,324.5,451.5,324.5"></path><path id="kity_path_61" fill="none" stroke="rgb(115, 191, 118)" stroke-width="1" d="M300.5,343.5C308.5,343.5,308.5,350.5,316.5,350.5"></path><path id="kity_path_63" fill="none" stroke="rgb(115, 191, 118)" stroke-width="1" d="M407.5,350.5C415.5,350.5,415.5,350.5,423.5,350.5"></path><path id="kity_path_65" fill="none" stroke="rgb(115, 191, 118)" stroke-width="1" d="M70.5,743.5A66,204,0,0,1,136.5,539.5"></path><path id="kity_path_67" fill="none" stroke="rgb(115, 191, 118)" stroke-width="1" d="M371.5,539.5C379.5,539.5,379.5,487.5,387.5,487.5"></path><path id="kity_path_69" fill="none" stroke="rgb(115, 191, 118)" stroke-width="1" d="M371.5,539.5C379.5,539.5,379.5,565.5,387.5,565.5"></path><path id="kity_path_71" fill="none" stroke="rgb(115, 191, 118)" stroke-width="1" d="M371.5,539.5C379.5,539.5,379.5,591.5,387.5,591.5"></path><path id="kity_path_73" fill="none" stroke="rgb(115, 191, 118)" stroke-width="1" d="M70.5,743.5A66,56,0,0,0,136.5,799.5"></path><path id="kity_path_75" fill="none" stroke="rgb(115, 191, 118)" stroke-width="1" d="M258.5,799.5C266.5,799.5,266.5,630.5,274.5,630.5"></path><path id="kity_path_77" fill="none" stroke="rgb(115, 191, 118)" stroke-width="1" d="M258.5,799.5C266.5,799.5,266.5,673.5,274.5,673.5"></path><path id="kity_path_79" fill="none" stroke="rgb(115, 191, 118)" stroke-width="1" d="M258.5,799.5C266.5,799.5,266.5,790.5,274.5,790.5"></path><path id="kity_path_81" fill="none" stroke="rgb(115, 191, 118)" stroke-width="1" d="M345.5,790.5C353.5,790.5,353.5,712.5,361.5,712.5"></path><path id="kity_path_83" fill="none" stroke="rgb(115, 191, 118)" stroke-width="1" d="M345.5,790.5C353.5,790.5,353.5,738.5,361.5,738.5"></path><path id="kity_path_85" fill="none" stroke="rgb(115, 191, 118)" stroke-width="1" d="M258.5,799.5C266.5,799.5,266.5,973.5,274.5,973.5"></path><path id="kity_path_87" fill="none" stroke="rgb(115, 191, 118)" stroke-width="1" d="M70.5,743.5A66,414,0,0,0,136.5,1157.5"></path><path id="kity_path_89" fill="none" stroke="rgb(115, 191, 118)" stroke-width="1" d="M286.5,1157.5C294.5,1157.5,294.5,1086.5,302.5,1086.5"></path><path id="kity_path_91" fill="none" stroke="rgb(115, 191, 118)" stroke-width="1" d="M286.5,1157.5C294.5,1157.5,294.5,1138.5,302.5,1138.5"></path><path id="kity_path_93" fill="none" stroke="rgb(115, 191, 118)" stroke-width="1" d="M286.5,1157.5C294.5,1157.5,294.5,1190.5,302.5,1190.5"></path><path id="kity_path_95" fill="none" stroke="rgb(115, 191, 118)" stroke-width="1" d="M286.5,1157.5C294.5,1157.5,294.5,1229.5,302.5,1229.5"></path><path id="kity_path_97" fill="none" stroke="rgb(115, 191, 118)" stroke-width="1" d="M70.5,743.5A66,610,0,0,0,136.5,1353.5"></path><path id="kity_path_99" fill="none" stroke="rgb(115, 191, 118)" stroke-width="1" d="M272.5,1353.5C280.5,1353.5,280.5,1275.5,288.5,1275.5"></path><path id="kity_path_101" fill="none" stroke="rgb(115, 191, 118)" stroke-width="1" d="M272.5,1353.5C280.5,1353.5,280.5,1301.5,288.5,1301.5"></path><path id="kity_path_103" fill="none" stroke="rgb(115, 191, 118)" stroke-width="1" d="M272.5,1353.5C280.5,1353.5,280.5,1327.5,288.5,1327.5"></path><path id="kity_path_105" fill="none" stroke="rgb(115, 191, 118)" stroke-width="1" d="M272.5,1353.5C280.5,1353.5,280.5,1353.5,288.5,1353.5"></path><path id="kity_path_107" fill="none" stroke="rgb(115, 191, 118)" stroke-width="1" d="M272.5,1353.5C280.5,1353.5,280.5,1379.5,288.5,1379.5"></path><path id="kity_path_109" fill="none" stroke="rgb(115, 191, 118)" stroke-width="1" d="M272.5,1353.5C280.5,1353.5,280.5,1405.5,288.5,1405.5"></path><path id="kity_path_111" fill="none" stroke="rgb(115, 191, 118)" stroke-width="1" d="M272.5,1353.5C280.5,1353.5,280.5,1431.5,288.5,1431.5"></path><path id="kity_path_359" fill="none" stroke="rgb(115, 191, 118)" stroke-width="1" d="M300.5,343.5C308.5,343.5,308.5,389.5,316.5,389.5"></path><path id="kity_path_367" fill="none" stroke="rgb(115, 191, 118)" stroke-width="1" d="M460.5,389.5C468.5,389.5,468.5,376.5,476.5,376.5"></path><path id="kity_path_375" fill="none" stroke="rgb(115, 191, 118)" stroke-width="1" d="M460.5,389.5C468.5,389.5,468.5,402.5,476.5,402.5"></path><path id="kity_path_384" fill="none" stroke="rgb(115, 191, 118)" stroke-width="1" d="M705.5,487.5C713.5,487.5,713.5,487.5,721.5,487.5"></path><path id="kity_path_393" fill="none" stroke="rgb(115, 191, 118)" stroke-width="1" d="M393.5,673.5C401.5,673.5,401.5,660.5,409.5,660.5"></path><path id="kity_path_401" fill="none" stroke="rgb(115, 191, 118)" stroke-width="1" d="M393.5,673.5C401.5,673.5,401.5,686.5,409.5,686.5"></path><path id="kity_path_424" fill="none" stroke="rgb(115, 191, 118)" stroke-width="1" d="M345.5,790.5C353.5,790.5,353.5,764.5,361.5,764.5"></path><path id="kity_path_432" fill="none" stroke="rgb(115, 191, 118)" stroke-width="1" d="M345.5,790.5C353.5,790.5,353.5,816.5,361.5,816.5"></path><path id="kity_path_440" fill="none" stroke="rgb(115, 191, 118)" stroke-width="1" d="M443.5,816.5C451.5,816.5,451.5,790.5,459.5,790.5"></path><path id="kity_path_448" fill="none" stroke="rgb(115, 191, 118)" stroke-width="1" d="M443.5,816.5C451.5,816.5,451.5,816.5,459.5,816.5"></path><path id="kity_path_456" fill="none" stroke="rgb(115, 191, 118)" stroke-width="1" d="M443.5,816.5C451.5,816.5,451.5,842.5,459.5,842.5"></path><path id="kity_path_464" fill="none" stroke="rgb(115, 191, 118)" stroke-width="1" d="M345.5,790.5C353.5,790.5,353.5,868.5,361.5,868.5"></path><path id="kity_path_472" fill="none" stroke="rgb(115, 191, 118)" stroke-width="1" d="M465.5,973.5C473.5,973.5,473.5,973.5,481.5,973.5"></path><path id="kity_path_481" fill="none" stroke="rgb(115, 191, 118)" stroke-width="1" d="M565.5,1138.5C573.5,1138.5,573.5,1112.5,581.5,1112.5"></path><path id="kity_path_489" fill="none" stroke="rgb(115, 191, 118)" stroke-width="1" d="M565.5,1138.5C573.5,1138.5,573.5,1138.5,581.5,1138.5"></path><path id="kity_path_505" fill="none" stroke="rgb(115, 191, 118)" stroke-width="1" d="M565.5,1138.5C573.5,1138.5,573.5,1164.5,581.5,1164.5"></path><path id="kity_path_513" fill="none" stroke="rgb(115, 191, 118)" stroke-width="1" d="M444.5,1190.5C452.5,1190.5,452.5,1190.5,460.5,1190.5"></path><path id="kity_path_521" fill="none" stroke="rgb(115, 191, 118)" stroke-width="1" d="M372.5,1229.5C380.5,1229.5,380.5,1216.5,388.5,1216.5"></path><path id="kity_path_529" fill="none" stroke="rgb(115, 191, 118)" stroke-width="1" d="M372.5,1229.5C380.5,1229.5,380.5,1242.5,388.5,1242.5"></path></g><g id="minder_node1"><path id="node_outline1" fill="rgb(115, 191, 118)" stroke="rgb(115, 191, 118)" d="M25.5,729.5h90a5,5,0,0,1,5,5v18a5,5,0,0,1,-5,5h-90a5,5,0,0,1,-5,-5v-18a5,5,0,0,1,5,-5z" stroke-width="3"></path><g id="node_text1" fill="white"><text id="kity_text_22" text-rendering="inherit" font-size="16" dy=".8em" y="735.5" x="32.5">Node简介</text></g></g><g id="kity_g_12"><path id="kity_path_13" fill="none" stroke="none" d="M32.5,743.5h0v0h0z"></path></g><g id="kity_g_14"><path id="kity_path_15" fill="none" stroke="none" d="M32.5,743.5h0v0h0z"></path><path id="kity_path_16" fill="none" stroke="none"></path></g><g id="minder_node2"><g id="node_expander10" style="cursor: pointer;"><path id="kity_path_263" fill="white" stroke="gray" d="M137.5,133.5A6,6,0,1,1,125.5,133.5A6,6,0,1,1,137.5,133.5"></path><path id="kity_path_264" fill="none" stroke="gray" d="M127,133.5L136,133.5"></path></g><path id="node_outline11" fill="rgb(238, 246, 238)" stroke="rgb(115, 191, 118)" d="M141.5,120.5h142a3,3,0,0,1,3,3v20a3,3,0,0,1,-3,3h-142a3,3,0,0,1,-3,-3v-20a3,3,0,0,1,3,-3z" stroke-width="1"></path><g id="node_text11" fill="black"><text id="kity_text_131" text-rendering="inherit" font-size="14" dy=".8em" y="126.5" x="158.5">Node的诞生历程</text></g></g><g id="minder_node3"><g id="node_expander1" style="cursor: pointer;" display="none"><path id="kity_path_236" fill="white" stroke="gray" d="M302.5,29.5A6,6,0,1,1,290.5,29.5A6,6,0,1,1,302.5,29.5"></path><path id="kity_path_237" fill="none" stroke="gray"></path></g><path id="node_outline2" fill="none" stroke="none" d="M307.5,20.5h212a5,5,0,0,1,5,5v8a5,5,0,0,1,-5,5h-212a5,5,0,0,1,-5,-5v-8a5,5,0,0,1,5,-5z"></path><g id="node_text2" fill="black"><text id="kity_text_113" text-rendering="inherit" font-size="12" dy=".8em" y="23.5" x="307.5">2009年3月，Ryan Dahl在博客宣布创建</text></g></g><g id="minder_node4"><g id="node_expander2" style="cursor: pointer;" display="none"><path id="kity_path_239" fill="white" stroke="gray" d="M302.5,55.5A6,6,0,1,1,290.5,55.5A6,6,0,1,1,302.5,55.5"></path><path id="kity_path_240" fill="none" stroke="gray"></path></g><path id="node_outline3" fill="none" stroke="none" d="M307.5,46.5h205a5,5,0,0,1,5,5v8a5,5,0,0,1,-5,5h-205a5,5,0,0,1,-5,-5v-8a5,5,0,0,1,5,-5z"></path><g id="node_text3" fill="black"><text id="kity_text_115" text-rendering="inherit" font-size="12" dy=".8em" y="49.5" x="307.5">2009年5月，在Github上发布最初版本</text></g></g><g id="minder_node5"><g id="node_expander3" style="cursor: pointer;" display="none"><path id="kity_path_242" fill="white" stroke="gray" d="M302.5,81.5A6,6,0,1,1,290.5,81.5A6,6,0,1,1,302.5,81.5"></path><path id="kity_path_243" fill="none" stroke="gray"></path></g><path id="node_outline4" fill="none" stroke="none" d="M307.5,72.5h338a5,5,0,0,1,5,5v8a5,5,0,0,1,-5,5h-338a5,5,0,0,1,-5,-5v-8a5,5,0,0,1,5,-5z"></path><g id="node_text4" fill="black"><text id="kity_text_117" text-rendering="inherit" font-size="12" dy=".8em" y="75.5" x="307.5">2009年12月和2010年4月，两届JSConf大会安排了Node的讲座</text></g></g><g id="minder_node6"><g id="node_expander4" style="cursor: pointer;" display="none"><path id="kity_path_245" fill="white" stroke="gray" d="M302.5,107.5A6,6,0,1,1,290.5,107.5A6,6,0,1,1,302.5,107.5"></path><path id="kity_path_246" fill="none" stroke="gray"></path></g><path id="node_outline5" fill="none" stroke="none" d="M307.5,98.5h302a5,5,0,0,1,5,5v8a5,5,0,0,1,-5,5h-302a5,5,0,0,1,-5,-5v-8a5,5,0,0,1,5,-5z"></path><g id="node_text5" fill="black"><text id="kity_text_119" text-rendering="inherit" font-size="12" dy=".8em" y="101.5" x="307.5">2010年底，Ryan Dahl加入Joyent全职负责Node的发展</text></g></g><g id="minder_node7"><g id="node_expander5" style="cursor: pointer;" display="none"><path id="kity_path_248" fill="white" stroke="gray" d="M302.5,133.5A6,6,0,1,1,290.5,133.5A6,6,0,1,1,302.5,133.5"></path><path id="kity_path_249" fill="none" stroke="gray"></path></g><path id="node_outline6" fill="none" stroke="none" d="M307.5,124.5h169a5,5,0,0,1,5,5v8a5,5,0,0,1,-5,5h-169a5,5,0,0,1,-5,-5v-8a5,5,0,0,1,5,-5z"></path><g id="node_text6" fill="black"><text id="kity_text_121" text-rendering="inherit" font-size="12" dy=".8em" y="127.5" x="307.5">2011年7月，发布Windows版本</text></g></g><g id="minder_node8"><g id="node_expander6" style="cursor: pointer;" display="none"><path id="kity_path_251" fill="white" stroke="gray" d="M302.5,159.5A6,6,0,1,1,290.5,159.5A6,6,0,1,1,302.5,159.5"></path><path id="kity_path_252" fill="none" stroke="gray"></path></g><path id="node_outline7" fill="none" stroke="none" d="M307.5,150.5h260a5,5,0,0,1,5,5v8a5,5,0,0,1,-5,5h-260a5,5,0,0,1,-5,-5v-8a5,5,0,0,1,5,-5z"></path><g id="node_text7" fill="black"><text id="kity_text_123" text-rendering="inherit" font-size="12" dy=".8em" y="153.5" x="307.5">2011年11月，成为Github上面关注度最高的项目</text></g></g><g id="minder_node9"><g id="node_expander7" style="cursor: pointer;" display="none"><path id="kity_path_254" fill="white" stroke="gray" d="M302.5,185.5A6,6,0,1,1,290.5,185.5A6,6,0,1,1,302.5,185.5"></path><path id="kity_path_255" fill="none" stroke="gray"></path></g><path id="node_outline8" fill="none" stroke="none" d="M307.5,176.5h396a5,5,0,0,1,5,5v8a5,5,0,0,1,-5,5h-396a5,5,0,0,1,-5,-5v-8a5,5,0,0,1,5,-5z"></path><g id="node_text8" fill="black"><text id="kity_text_125" text-rendering="inherit" font-size="12" dy=".8em" y="179.5" x="307.5">2012年1月底，Ryan Dahl 将掌门人身份交给NPM的作者Issac Z.Schlueter</text></g></g><g id="minder_node10"><g id="node_expander8" style="cursor: pointer;" display="none"><path id="kity_path_257" fill="white" stroke="gray" d="M302.5,211.5A6,6,0,1,1,290.5,211.5A6,6,0,1,1,302.5,211.5"></path><path id="kity_path_258" fill="none" stroke="gray"></path></g><path id="node_outline9" fill="none" stroke="none" d="M307.5,202.5h178a5,5,0,0,1,5,5v8a5,5,0,0,1,-5,5h-178a5,5,0,0,1,-5,-5v-8a5,5,0,0,1,5,-5z"></path><g id="node_text9" fill="black"><text id="kity_text_127" text-rendering="inherit" font-size="12" dy=".8em" y="205.5" x="307.5">2013年7月，发布稳定版V0.10.13</text></g></g><g id="minder_node11"><g id="node_expander9" style="cursor: pointer;" display="none"><path id="kity_path_260" fill="white" stroke="gray" d="M302.5,237.5A6,6,0,1,1,290.5,237.5A6,6,0,1,1,302.5,237.5"></path><path id="kity_path_261" fill="none" stroke="gray"></path></g><path id="node_outline10" fill="none" stroke="none" d="M307.5,228.5h389a5,5,0,0,1,5,5v8a5,5,0,0,1,-5,5h-389a5,5,0,0,1,-5,-5v-8a5,5,0,0,1,5,-5z"></path><g id="node_text10" fill="black"><text id="kity_text_129" text-rendering="inherit" font-size="12" dy=".8em" y="231.5" x="307.5">随后，Node的发布计划主要集中在性能上面，V0.14后正式发布V1.0版本</text></g></g><g id="minder_node12"><g id="node_expander17" style="cursor: pointer;"><path id="kity_path_284" fill="white" stroke="gray" d="M137.5,343.5A6,6,0,1,1,125.5,343.5A6,6,0,1,1,137.5,343.5"></path><path id="kity_path_285" fill="none" stroke="gray" d="M127,343.5L136,343.5"></path></g><path id="node_outline18" fill="rgb(238, 246, 238)" stroke="rgb(115, 191, 118)" d="M141.5,330.5h156a3,3,0,0,1,3,3v20a3,3,0,0,1,-3,3h-156a3,3,0,0,1,-3,-3v-20a3,3,0,0,1,3,-3z" stroke-width="1"></path><g id="node_text18" fill="black"><text id="kity_text_145" text-rendering="inherit" font-size="14" dy=".8em" y="336.5" x="158.5">Node的命名与起源</text></g></g><g id="minder_node13"><g id="node_expander14" style="cursor: pointer;"><path id="kity_path_275" fill="white" stroke="gray" d="M316.5,298.5A6,6,0,1,1,304.5,298.5A6,6,0,1,1,316.5,298.5"></path><path id="kity_path_276" fill="none" stroke="gray" d="M306,298.5L315,298.5"></path></g><path id="node_outline15" fill="none" stroke="none" d="M321.5,289.5h109a5,5,0,0,1,5,5v8a5,5,0,0,1,-5,5h-109a5,5,0,0,1,-5,-5v-8a5,5,0,0,1,5,-5z"></path><g id="node_text15" fill="black"><text id="kity_text_139" text-rendering="inherit" font-size="12" dy=".8em" y="292.5" x="321.5">为什么是JavaScript</text></g></g><g id="minder_node14"><g id="node_expander11" style="cursor: pointer;" display="none"><path id="kity_path_266" fill="white" stroke="gray" d="M451.5,272.5A6,6,0,1,1,439.5,272.5A6,6,0,1,1,451.5,272.5"></path><path id="kity_path_267" fill="none" stroke="gray"></path></g><path id="node_outline12" fill="none" stroke="none" d="M456.5,263.5h301a5,5,0,0,1,5,5v8a5,5,0,0,1,-5,5h-301a5,5,0,0,1,-5,-5v-8a5,5,0,0,1,5,-5z" stroke-width="3"></path><g id="node_text12" fill="black"><text id="kity_text_133" text-rendering="inherit" font-size="12" dy=".8em" y="266.5" x="456.5">高性能（chrome浏览器的V8引擎性能在浏览器中第一）</text></g></g><g id="minder_node15"><g id="node_expander12" style="cursor: pointer;" display="none"><path id="kity_path_269" fill="white" stroke="gray" d="M451.5,298.5A6,6,0,1,1,439.5,298.5A6,6,0,1,1,451.5,298.5"></path><path id="kity_path_270" fill="none" stroke="gray"></path></g><path id="node_outline13" fill="none" stroke="none" d="M456.5,289.5h373a5,5,0,0,1,5,5v8a5,5,0,0,1,-5,5h-373a5,5,0,0,1,-5,-5v-8a5,5,0,0,1,5,-5z" stroke-width="3"></path><g id="node_text13" fill="black"><text id="kity_text_135" text-rendering="inherit" font-size="12" dy=".8em" y="292.5" x="456.5">符合事件驱动（JavaScript在浏览器中有广泛的事件驱动方面的应用）</text></g></g><g id="minder_node16"><g id="node_expander13" style="cursor: pointer;" display="none"><path id="kity_path_272" fill="white" stroke="gray" d="M451.5,324.5A6,6,0,1,1,439.5,324.5A6,6,0,1,1,451.5,324.5"></path><path id="kity_path_273" fill="none" stroke="gray"></path></g><path id="node_outline14" fill="none" stroke="none" d="M456.5,315.5h294a5,5,0,0,1,5,5v8a5,5,0,0,1,-5,5h-294a5,5,0,0,1,-5,-5v-8a5,5,0,0,1,5,-5z" stroke-width="3"></path><g id="node_text14" fill="black"><text id="kity_text_137" text-rendering="inherit" font-size="12" dy=".8em" y="318.5" x="456.5">没有历史包袱（为其导入非阻塞的I/O库没有而外阻力）</text></g></g><g id="minder_node17"><g id="node_expander16" style="cursor: pointer;"><path id="kity_path_281" fill="white" stroke="gray" d="M316.5,350.5A6,6,0,1,1,304.5,350.5A6,6,0,1,1,316.5,350.5"></path><path id="kity_path_282" fill="none" stroke="gray" d="M306,350.5L315,350.5"></path></g><path id="node_outline17" fill="none" stroke="none" d="M321.5,341.5h81a5,5,0,0,1,5,5v8a5,5,0,0,1,-5,5h-81a5,5,0,0,1,-5,-5v-8a5,5,0,0,1,5,-5z" stroke-width="3"></path><g id="node_text17" fill="black"><text id="kity_text_143" text-rendering="inherit" font-size="12" dy=".8em" y="344.5" x="321.5">为什么叫Node</text></g></g><g id="minder_node18"><g id="node_expander15" style="cursor: pointer;" display="none"><path id="kity_path_278" fill="white" stroke="gray" d="M423.5,350.5A6,6,0,1,1,411.5,350.5A6,6,0,1,1,423.5,350.5"></path><path id="kity_path_279" fill="none" stroke="gray"></path></g><path id="node_outline16" fill="none" stroke="none" d="M428.5,341.5h249a5,5,0,0,1,5,5v8a5,5,0,0,1,-5,5h-249a5,5,0,0,1,-5,-5v-8a5,5,0,0,1,5,-5z" stroke-width="3"></path><g id="node_text16" fill="black"><text id="kity_text_141" text-rendering="inherit" font-size="12" dy=".8em" y="344.5" x="428.5">每一个Node进程构成这个网络应用中一个节点</text></g></g><g id="minder_node19"><g id="node_expander21" style="cursor: pointer;"><path id="kity_path_296" fill="white" stroke="gray" d="M137.5,539.5A6,6,0,1,1,125.5,539.5A6,6,0,1,1,137.5,539.5"></path><path id="kity_path_297" fill="none" stroke="gray" d="M127,539.5L136,539.5"></path></g><path id="node_outline22" fill="rgb(238, 246, 238)" stroke="rgb(115, 191, 118)" d="M141.5,526.5h227a3,3,0,0,1,3,3v20a3,3,0,0,1,-3,3h-227a3,3,0,0,1,-3,-3v-20a3,3,0,0,1,3,-3z" stroke-width="1"></path><g id="node_text22" fill="black"><text id="kity_text_153" text-rendering="inherit" font-size="14" dy=".8em" y="532.5" x="158.5">Node给JavaScript带来的意义</text></g></g><g id="minder_node20"><g id="node_expander18" style="cursor: pointer;"><path id="kity_path_287" fill="white" stroke="gray" d="M387.5,487.5A6,6,0,1,1,375.5,487.5A6,6,0,1,1,387.5,487.5"></path><path id="kity_path_288" fill="none" stroke="gray" d="M377,487.5L386,487.5"></path></g><path id="node_outline19" fill="none" stroke="none" d="M392.5,478.5h308a5,5,0,0,1,5,5v8a5,5,0,0,1,-5,5h-308a5,5,0,0,1,-5,-5v-8a5,5,0,0,1,5,-5z" stroke-width="3"></path><g id="node_text19" fill="black"><text id="kity_text_147" text-rendering="inherit" font-size="12" dy=".8em" y="481.5" x="392.5">Node结构与Chrome十分相似，基于事件驱动的异步架构</text></g><image id="kity_image_382" xmlns:xlink="http://www.w3.org/1999/xlink" xlink:href="http://kityminder-img.gz.bcebos.com/685b316f589bd7e39154fca56243f725eb77bba9" x="446.5" y="377.5" width="200" height="99" xlink:title="chrome浏览器和Node组建构成" display="none"></image></g><g id="minder_node21"><g id="node_expander19" style="cursor: pointer;" display="none"><path id="kity_path_290" fill="white" stroke="gray" d="M387.5,565.5A6,6,0,1,1,375.5,565.5A6,6,0,1,1,387.5,565.5"></path><path id="kity_path_291" fill="none" stroke="gray"></path></g><path id="node_outline20" fill="none" stroke="none" d="M392.5,556.5h346a5,5,0,0,1,5,5v8a5,5,0,0,1,-5,5h-346a5,5,0,0,1,-5,-5v-8a5,5,0,0,1,5,-5z" stroke-width="3"></path><g id="node_text20" fill="black"><text id="kity_text_149" text-rendering="inherit" font-size="12" dy=".8em" y="559.5" x="392.5">Node中JavaScript可以访问本地文件，搭建服务器，连接数据库</text></g></g><g id="minder_node22"><g id="node_expander20" style="cursor: pointer;" display="none"><path id="kity_path_293" fill="white" stroke="gray" d="M387.5,591.5A6,6,0,1,1,375.5,591.5A6,6,0,1,1,387.5,591.5"></path><path id="kity_path_294" fill="none" stroke="gray"></path></g><path id="node_outline21" fill="none" stroke="none" d="M392.5,582.5h370a5,5,0,0,1,5,5v8a5,5,0,0,1,-5,5h-370a5,5,0,0,1,-5,-5v-8a5,5,0,0,1,5,-5z" stroke-width="3"></path><g id="node_text21" fill="black"><text id="kity_text_151" text-rendering="inherit" font-size="12" dy=".8em" y="585.5" x="392.5">Node打破了过去JavaScript只能在浏览器中运行的局面，前后端统一</text></g></g><g id="minder_node23"><g id="node_expander28" style="cursor: pointer;"><path id="kity_path_317" fill="white" stroke="gray" d="M137.5,799.5A6,6,0,1,1,125.5,799.5A6,6,0,1,1,137.5,799.5"></path><path id="kity_path_318" fill="none" stroke="gray" d="M127,799.5L136,799.5"></path></g><path id="node_outline29" fill="rgb(238, 246, 238)" stroke="rgb(115, 191, 118)" d="M141.5,786.5h114a3,3,0,0,1,3,3v20a3,3,0,0,1,-3,3h-114a3,3,0,0,1,-3,-3v-20a3,3,0,0,1,3,-3z" stroke-width="1"></path><g id="node_text29" fill="black"><text id="kity_text_167" text-rendering="inherit" font-size="14" dy=".8em" y="792.5" x="158.5">Node的特点</text></g></g><g id="minder_node24"><g id="node_expander22" style="cursor: pointer;" display="none"><path id="kity_path_299" fill="white" stroke="gray" d="M274.5,630.5A6,6,0,1,1,262.5,630.5A6,6,0,1,1,274.5,630.5"></path><path id="kity_path_300" fill="none" stroke="gray"></path></g><path id="node_outline23" fill="none" stroke="none" d="M279.5,617.5h67a5,5,0,0,1,5,5v16a5,5,0,0,1,-5,5h-67a5,5,0,0,1,-5,-5v-16a5,5,0,0,1,5,-5z" stroke-width="3"></path><g id="node_text23" fill="black"><text id="kity_text_155" text-rendering="inherit" font-size="12" dy=".8em" y="624.5" x="304.5">异步I/O</text></g><g id="node_priority1"><path id="kity_path_410" fill="#006300" stroke="none" d="M280,634c0,3.866,3.134,7,7,7h6c3.866,0,7,-3.134,7,-7V628H280V634z"></path><path id="kity_path_411" fill="#00AF00" stroke="none" d="M300,631c0,3.866,-3.134,7,-7,7H287c-3.866,0,-7,-3.134,-7,-7V628c0,-3.866,3.134,-7,7,-7h6c3.866,0,7,3.134,7,7V631z" opacity="0.8"></path><text id="kity_text_412" text-rendering="geometricPrecision" x="289" y="630.5" text-anchor="middle" font-style="italic" font-size="12" fill="white" dy="4">3</text></g></g><g id="minder_node25"><g id="node_expander23" style="cursor: pointer;"><path id="kity_path_302" fill="white" stroke="gray" d="M274.5,673.5A6,6,0,1,1,262.5,673.5A6,6,0,1,1,274.5,673.5"></path><path id="kity_path_303" fill="none" stroke="gray" d="M264,673.5L273,673.5"></path></g><path id="node_outline24" fill="none" stroke="none" d="M279.5,660.5h109a5,5,0,0,1,5,5v16a5,5,0,0,1,-5,5h-109a5,5,0,0,1,-5,-5v-16a5,5,0,0,1,5,-5z" stroke-width="3"></path><g id="node_text24" fill="black"><text id="kity_text_157" text-rendering="inherit" font-size="12" dy=".8em" y="667.5" x="304.5">事件与回调函数</text></g><g id="node_priority2"><path id="kity_path_415" fill="#B25000" stroke="none" d="M280,677c0,3.866,3.134,7,7,7h6c3.866,0,7,-3.134,7,-7V671H280V677z"></path><path id="kity_path_416" fill="#FF962E" stroke="none" d="M300,674c0,3.866,-3.134,7,-7,7H287c-3.866,0,-7,-3.134,-7,-7V671c0,-3.866,3.134,-7,7,-7h6c3.866,0,7,3.134,7,7V674z" opacity="0.8"></path><text id="kity_text_417" text-rendering="geometricPrecision" x="289" y="673.5" text-anchor="middle" font-style="italic" font-size="12" fill="white" dy="4">4</text></g></g><g id="minder_node26"><g id="node_expander26" style="cursor: pointer;"><path id="kity_path_311" fill="white" stroke="gray" d="M274.5,790.5A6,6,0,1,1,262.5,790.5A6,6,0,1,1,274.5,790.5"></path><path id="kity_path_312" fill="none" stroke="gray" d="M264,790.5L273,790.5"></path></g><path id="node_outline27" fill="none" stroke="none" d="M279.5,777.5h61a5,5,0,0,1,5,5v16a5,5,0,0,1,-5,5h-61a5,5,0,0,1,-5,-5v-16a5,5,0,0,1,5,-5z" stroke-width="3"></path><g id="node_text27" fill="black"><text id="kity_text_163" text-rendering="inherit" font-size="12" dy=".8em" y="784.5" x="304.5">单线程</text></g><g id="node_priority3"><path id="kity_path_420" fill="#515151" stroke="none" d="M280,794c0,3.866,3.134,7,7,7h6c3.866,0,7,-3.134,7,-7V788H280V794z"></path><path id="kity_path_421" fill="#A3A3A3" stroke="none" d="M300,791c0,3.866,-3.134,7,-7,7H287c-3.866,0,-7,-3.134,-7,-7V788c0,-3.866,3.134,-7,7,-7h6c3.866,0,7,3.134,7,7V791z" opacity="0.8"></path><text id="kity_text_422" text-rendering="geometricPrecision" x="289" y="790.5" text-anchor="middle" font-style="italic" font-size="12" fill="white" dy="4">9</text></g></g><g id="minder_node27"><g id="node_expander24" style="cursor: pointer;" display="none"><path id="kity_path_305" fill="white" stroke="gray" d="M361.5,712.5A6,6,0,1,1,349.5,712.5A6,6,0,1,1,361.5,712.5"></path><path id="kity_path_306" fill="none" stroke="gray"></path></g><path id="node_outline25" fill="none" stroke="none" d="M366.5,703.5h251a5,5,0,0,1,5,5v8a5,5,0,0,1,-5,5h-251a5,5,0,0,1,-5,-5v-8a5,5,0,0,1,5,-5z" stroke-width="3"></path><g id="node_text25" fill="black"><text id="kity_text_159" text-rendering="inherit" font-size="12" dy=".8em" y="706.5" x="366.5">child_progress：解决单线程中大量算量的问题</text></g></g><g id="minder_node28"><g id="node_expander25" style="cursor: pointer;" display="none"><path id="kity_path_308" fill="white" stroke="gray" d="M361.5,738.5A6,6,0,1,1,349.5,738.5A6,6,0,1,1,361.5,738.5"></path><path id="kity_path_309" fill="none" stroke="gray"></path></g><path id="node_outline26" fill="none" stroke="none" d="M366.5,729.5h192a5,5,0,0,1,5,5v8a5,5,0,0,1,-5,5h-192a5,5,0,0,1,-5,-5v-8a5,5,0,0,1,5,-5z"></path><g id="node_text26" fill="black"><text id="kity_text_161" text-rendering="inherit" font-size="12" dy=".8em" y="732.5" x="366.5">Master-Worker：管理各个工作进程</text></g></g><g id="minder_node29"><g id="node_expander27" style="cursor: pointer;"><path id="kity_path_314" fill="white" stroke="gray" d="M274.5,973.5A6,6,0,1,1,262.5,973.5A6,6,0,1,1,274.5,973.5"></path><path id="kity_path_315" fill="none" stroke="gray" d="M264,973.5L273,973.5"></path></g><path id="node_outline28" fill="none" stroke="none" d="M279.5,964.5h181a5,5,0,0,1,5,5v8a5,5,0,0,1,-5,5h-181a5,5,0,0,1,-5,-5v-8a5,5,0,0,1,5,-5z" stroke-width="3"></path><g id="node_text28" fill="black"><text id="kity_text_165" text-rendering="inherit" font-size="12" dy=".8em" y="967.5" x="279.5">跨平台：兼容Windows和*nix平台</text></g></g><g id="minder_node30"><g id="node_expander33" style="cursor: pointer;"><path id="kity_path_332" fill="white" stroke="gray" d="M137.5,1157.5A6,6,0,1,1,125.5,1157.5A6,6,0,1,1,137.5,1157.5"></path><path id="kity_path_333" fill="none" stroke="gray" d="M127,1157.5L136,1157.5"></path></g><path id="node_outline34" fill="rgb(238, 246, 238)" stroke="rgb(115, 191, 118)" d="M141.5,1144.5h142a3,3,0,0,1,3,3v20a3,3,0,0,1,-3,3h-142a3,3,0,0,1,-3,-3v-20a3,3,0,0,1,3,-3z" stroke-width="1"></path><g id="node_text34" fill="black"><text id="kity_text_177" text-rendering="inherit" font-size="14" dy=".8em" y="1150.5" x="158.5">Node的应用场景</text></g></g><g id="minder_node31"><g id="node_expander29" style="cursor: pointer;" display="none"><path id="kity_path_320" fill="white" stroke="gray" d="M302.5,1086.5A6,6,0,1,1,290.5,1086.5A6,6,0,1,1,302.5,1086.5"></path><path id="kity_path_321" fill="none" stroke="gray"></path></g><path id="node_outline30" fill="none" stroke="none" d="M307.5,1077.5h54a5,5,0,0,1,5,5v8a5,5,0,0,1,-5,5h-54a5,5,0,0,1,-5,-5v-8a5,5,0,0,1,5,-5z"></path><g id="node_text30" fill="black"><text id="kity_text_169" text-rendering="inherit" font-size="12" dy=".8em" y="1080.5" x="307.5">I/O密集型</text></g></g><g id="minder_node32"><g id="node_expander30" style="cursor: pointer;"><path id="kity_path_323" fill="white" stroke="gray" d="M302.5,1138.5A6,6,0,1,1,290.5,1138.5A6,6,0,1,1,302.5,1138.5"></path><path id="kity_path_324" fill="none" stroke="gray" d="M292,1138.5L301,1138.5"></path></g><path id="node_outline31" fill="none" stroke="none" d="M307.5,1129.5h253a5,5,0,0,1,5,5v8a5,5,0,0,1,-5,5h-253a5,5,0,0,1,-5,-5v-8a5,5,0,0,1,5,-5z" stroke-width="3"></path><g id="node_text31" fill="black"><text id="kity_text_171" text-rendering="inherit" font-size="12" dy=".8em" y="1132.5" x="307.5">不是很擅长CPU密集型业务，但是可以合理调度</text></g></g><g id="minder_node33"><g id="node_expander31" style="cursor: pointer;"><path id="kity_path_326" fill="white" stroke="gray" d="M302.5,1190.5A6,6,0,1,1,290.5,1190.5A6,6,0,1,1,302.5,1190.5"></path><path id="kity_path_327" fill="none" stroke="gray" d="M292,1190.5L301,1190.5"></path></g><path id="node_outline32" fill="none" stroke="none" d="M307.5,1181.5h132a5,5,0,0,1,5,5v8a5,5,0,0,1,-5,5h-132a5,5,0,0,1,-5,-5v-8a5,5,0,0,1,5,-5z" stroke-width="3"></path><g id="node_text32" fill="black"><text id="kity_text_173" text-rendering="inherit" font-size="12" dy=".8em" y="1184.5" x="307.5">与遗留系统问题和平共处</text></g></g><g id="minder_node34"><g id="node_expander32" style="cursor: pointer;"><path id="kity_path_329" fill="white" stroke="gray" d="M302.5,1229.5A6,6,0,1,1,290.5,1229.5A6,6,0,1,1,302.5,1229.5"></path><path id="kity_path_330" fill="none" stroke="gray" d="M292,1229.5L301,1229.5"></path></g><path id="node_outline33" fill="none" stroke="none" d="M307.5,1220.5h60a5,5,0,0,1,5,5v8a5,5,0,0,1,-5,5h-60a5,5,0,0,1,-5,-5v-8a5,5,0,0,1,5,-5z" stroke-width="3"></path><g id="node_text33" fill="black"><text id="kity_text_175" text-rendering="inherit" font-size="12" dy=".8em" y="1223.5" x="307.5">分布式应用</text></g></g><g id="minder_node35"><g id="node_expander41" style="cursor: pointer;"><path id="kity_path_356" fill="white" stroke="gray" d="M137.5,1353.5A6,6,0,1,1,125.5,1353.5A6,6,0,1,1,137.5,1353.5"></path><path id="kity_path_357" fill="none" stroke="gray" d="M127,1353.5L136,1353.5"></path></g><path id="node_outline42" fill="rgb(238, 246, 238)" stroke="rgb(115, 191, 118)" d="M141.5,1340.5h128a3,3,0,0,1,3,3v20a3,3,0,0,1,-3,3h-128a3,3,0,0,1,-3,-3v-20a3,3,0,0,1,3,-3z" stroke-width="1"></path><g id="node_text42" fill="black"><text id="kity_text_193" text-rendering="inherit" font-size="14" dy=".8em" y="1346.5" x="158.5">Node的使用者</text></g></g><g id="minder_node36"><g id="node_expander34" style="cursor: pointer;" display="none"><path id="kity_path_335" fill="white" stroke="gray" d="M288.5,1275.5A6,6,0,1,1,276.5,1275.5A6,6,0,1,1,288.5,1275.5"></path><path id="kity_path_336" fill="none" stroke="gray"></path></g><path id="node_outline35" fill="none" stroke="none" d="M293.5,1266.5h276a5,5,0,0,1,5,5v8a5,5,0,0,1,-5,5h-276a5,5,0,0,1,-5,-5v-8a5,5,0,0,1,5,-5z" stroke-width="3"></path><g id="node_text35" fill="black"><text id="kity_text_179" text-rendering="inherit" font-size="12" dy=".8em" y="1269.5" x="293.5">前后端编程语言环境统一：雅虎开放了Cocktail框架</text></g></g><g id="minder_node37"><g id="node_expander35" style="cursor: pointer;" display="none"><path id="kity_path_338" fill="white" stroke="gray" d="M288.5,1301.5A6,6,0,1,1,276.5,1301.5A6,6,0,1,1,288.5,1301.5"></path><path id="kity_path_339" fill="none" stroke="gray"></path></g><path id="node_outline36" fill="none" stroke="none" d="M293.5,1292.5h289a5,5,0,0,1,5,5v8a5,5,0,0,1,-5,5h-289a5,5,0,0,1,-5,-5v-8a5,5,0,0,1,5,-5z"></path><g id="node_text36" fill="black"><text id="kity_text_181" text-rendering="inherit" font-size="12" dy=".8em" y="1295.5" x="293.5">Node带来的高性能的I/O用于实时应用：Voxer和腾讯</text></g></g><g id="minder_node38"><g id="node_expander36" style="cursor: pointer;" display="none"><path id="kity_path_341" fill="white" stroke="gray" d="M288.5,1327.5A6,6,0,1,1,276.5,1327.5A6,6,0,1,1,288.5,1327.5"></path><path id="kity_path_342" fill="none" stroke="gray"></path></g><path id="node_outline37" fill="none" stroke="none" d="M293.5,1318.5h448a5,5,0,0,1,5,5v8a5,5,0,0,1,-5,5h-448a5,5,0,0,1,-5,-5v-8a5,5,0,0,1,5,-5z" stroke-width="3"></path><g id="node_text37" fill="black"><text id="kity_text_183" text-rendering="inherit" font-size="12" dy=".8em" y="1321.5" x="293.5">并行I/O使得使用者可以更高效地利用分布式环境：阿里巴巴NodeFox和eBay的ql.io</text></g></g><g id="minder_node39"><g id="node_expander37" style="cursor: pointer;" display="none"><path id="kity_path_344" fill="white" stroke="gray" d="M288.5,1353.5A6,6,0,1,1,276.5,1353.5A6,6,0,1,1,288.5,1353.5"></path><path id="kity_path_345" fill="none" stroke="gray"></path></g><path id="node_outline38" fill="none" stroke="none" d="M293.5,1344.5h369a5,5,0,0,1,5,5v8a5,5,0,0,1,-5,5h-369a5,5,0,0,1,-5,-5v-8a5,5,0,0,1,5,-5z" stroke-width="3"></path><g id="node_text38" fill="black"><text id="kity_text_185" text-rendering="inherit" font-size="12" dy=".8em" y="1347.5" x="293.5">并行I/O，有效利用稳定接口提升Web渲染能力：雪球财经和LinkedIn</text></g></g><g id="minder_node40"><g id="node_expander38" style="cursor: pointer;" display="none"><path id="kity_path_347" fill="white" stroke="gray" d="M288.5,1379.5A6,6,0,1,1,276.5,1379.5A6,6,0,1,1,288.5,1379.5"></path><path id="kity_path_348" fill="none" stroke="gray"></path></g><path id="node_outline39" fill="none" stroke="none" d="M293.5,1370.5h141a5,5,0,0,1,5,5v8a5,5,0,0,1,-5,5h-141a5,5,0,0,1,-5,-5v-8a5,5,0,0,1,5,-5z"></path><g id="node_text39" fill="black"><text id="kity_text_187" text-rendering="inherit" font-size="12" dy=".8em" y="1373.5" x="293.5">云计算平台提供Node支持</text></g></g><g id="minder_node41"><g id="node_expander39" style="cursor: pointer;" display="none"><path id="kity_path_350" fill="white" stroke="gray" d="M288.5,1405.5A6,6,0,1,1,276.5,1405.5A6,6,0,1,1,288.5,1405.5"></path><path id="kity_path_351" fill="none" stroke="gray"></path></g><path id="node_outline40" fill="none" stroke="none" d="M293.5,1396.5h213a5,5,0,0,1,5,5v8a5,5,0,0,1,-5,5h-213a5,5,0,0,1,-5,-5v-8a5,5,0,0,1,5,-5z"></path><g id="node_text40" fill="black"><text id="kity_text_189" text-rendering="inherit" font-size="12" dy=".8em" y="1399.5" x="293.5">游戏开发领域：网易的pomelo实时框架</text></g></g><g id="minder_node42"><g id="node_expander40" style="cursor: pointer;" display="none"><path id="kity_path_353" fill="white" stroke="gray" d="M288.5,1431.5A6,6,0,1,1,276.5,1431.5A6,6,0,1,1,288.5,1431.5"></path><path id="kity_path_354" fill="none" stroke="gray"></path></g><path id="node_outline41" fill="none" stroke="none" d="M293.5,1422.5h60a5,5,0,0,1,5,5v8a5,5,0,0,1,-5,5h-60a5,5,0,0,1,-5,-5v-8a5,5,0,0,1,5,-5z"></path><g id="node_text41" fill="black"><text id="kity_text_191" text-rendering="inherit" font-size="12" dy=".8em" y="1425.5" x="293.5">工具类应用</text></g></g><g id="minder_node43"><g id="node_expander42" style="cursor: pointer;"><path id="kity_path_364" fill="white" stroke="gray" d="M316.5,389.5A6,6,0,1,1,304.5,389.5A6,6,0,1,1,316.5,389.5"></path><path id="kity_path_365" fill="none" stroke="gray" d="M306,389.5L315,389.5"></path></g><path id="node_outline43" fill="none" stroke="none" d="M321.5,380.5h134a5,5,0,0,1,5,5v8a5,5,0,0,1,-5,5h-134a5,5,0,0,1,-5,-5v-8a5,5,0,0,1,5,-5z" stroke-width="3"></path><g id="node_text43" fill="black"><text id="kity_text_361" text-rendering="inherit" font-size="12" dy=".8em" y="383.5" x="321.5">高性能web服务器的要点</text></g></g><g id="minder_node44"><g id="node_expander43" style="cursor: pointer;" display="none"><path id="kity_path_372" fill="white" stroke="gray" d="M476.5,376.5A6,6,0,1,1,464.5,376.5A6,6,0,1,1,476.5,376.5"></path><path id="kity_path_373" fill="none" stroke="gray"></path></g><path id="node_outline44" fill="none" stroke="none" d="M481.5,367.5h48a5,5,0,0,1,5,5v8a5,5,0,0,1,-5,5h-48a5,5,0,0,1,-5,-5v-8a5,5,0,0,1,5,-5z" stroke-width="3"></path><g id="node_text44" fill="black"><text id="kity_text_369" text-rendering="inherit" font-size="12" dy=".8em" y="370.5" x="481.5">事件驱动</text></g></g><g id="minder_node45"><g id="node_expander44" style="cursor: pointer;" display="none"><path id="kity_path_380" fill="white" stroke="gray" d="M476.5,402.5A6,6,0,1,1,464.5,402.5A6,6,0,1,1,476.5,402.5"></path><path id="kity_path_381" fill="none" stroke="gray"></path></g><path id="node_outline45" fill="none" stroke="none" d="M481.5,393.5h54a5,5,0,0,1,5,5v8a5,5,0,0,1,-5,5h-54a5,5,0,0,1,-5,-5v-8a5,5,0,0,1,5,-5z" stroke-width="3"></path><g id="node_text45" fill="black"><text id="kity_text_377" text-rendering="inherit" font-size="12" dy=".8em" y="396.5" x="481.5">非阻塞I/O</text></g></g><g id="minder_node46"><g id="node_expander45" style="cursor: pointer;" display="none"><path id="kity_path_389" fill="white" stroke="gray" d="M721.5,487.5A6,6,0,1,1,709.5,487.5A6,6,0,1,1,721.5,487.5"></path><path id="kity_path_390" fill="none" stroke="gray"></path></g><path id="node_outline46" fill="none" stroke="none" d="M726.5,426.5h200a5,5,0,0,1,5,5v112a5,5,0,0,1,-5,5h-200a5,5,0,0,1,-5,-5v-112a5,5,0,0,1,5,-5z" stroke-width="3"></path><g id="node_text46" fill="black"><text id="kity_text_386" text-rendering="inherit" font-size="12" dy=".8em" y="533.5" x="802.5">分支主题</text></g><image id="kity_image_391" xmlns:xlink="http://www.w3.org/1999/xlink" xlink:href="http://kityminder-img.gz.bcebos.com/685b316f589bd7e39154fca56243f725eb77bba9" x="726.5" y="429.5" width="200" height="99" xlink:title="chrome浏览器和Node组建构成"></image></g><g id="minder_node47"><g id="node_expander46" style="cursor: pointer;" display="none"><path id="kity_path_398" fill="white" stroke="gray" d="M409.5,660.5A6,6,0,1,1,397.5,660.5A6,6,0,1,1,409.5,660.5"></path><path id="kity_path_399" fill="none" stroke="gray"></path></g><path id="node_outline47" fill="none" stroke="none" d="M414.5,651.5h324a5,5,0,0,1,5,5v8a5,5,0,0,1,-5,5h-324a5,5,0,0,1,-5,-5v-8a5,5,0,0,1,5,-5z" stroke-width="3"></path><g id="node_text47" fill="black"><text id="kity_text_395" text-rendering="inherit" font-size="12" dy=".8em" y="654.5" x="414.5">事件的编程方式具有轻量级、松耦合、只关注事务点等优势。</text></g></g><g id="minder_node48"><g id="node_expander47" style="cursor: pointer;" display="none"><path id="kity_path_406" fill="white" stroke="gray" d="M409.5,686.5A6,6,0,1,1,397.5,686.5A6,6,0,1,1,409.5,686.5"></path><path id="kity_path_407" fill="none" stroke="gray"></path></g><path id="node_outline48" fill="none" stroke="none" d="M414.5,677.5h120a5,5,0,0,1,5,5v8a5,5,0,0,1,-5,5h-120a5,5,0,0,1,-5,-5v-8a5,5,0,0,1,5,-5z" stroke-width="3"></path><g id="node_text48" fill="black"><text id="kity_text_403" text-rendering="inherit" font-size="12" dy=".8em" y="680.5" x="414.5">回调函数也是一大特色</text></g></g><g id="minder_node49"><g id="node_expander48" style="cursor: pointer;" display="none"><path id="kity_path_429" fill="white" stroke="gray" d="M361.5,764.5A6,6,0,1,1,349.5,764.5A6,6,0,1,1,361.5,764.5"></path><path id="kity_path_430" fill="none" stroke="gray"></path></g><path id="node_outline49" fill="none" stroke="none" d="M366.5,755.5h528a5,5,0,0,1,5,5v8a5,5,0,0,1,-5,5h-528a5,5,0,0,1,-5,-5v-8a5,5,0,0,1,5,-5z" stroke-width="3"></path><g id="node_text49" fill="black"><text id="kity_text_426" text-rendering="inherit" font-size="12" dy=".8em" y="758.5" x="366.5">最大的好处是不用向多线程那样处处在意状态的同步问题；没有死锁；没有上下文交换的性能开销；</text></g></g><g id="minder_node50"><g id="node_expander49" style="cursor: pointer;"><path id="kity_path_437" fill="white" stroke="gray" d="M361.5,816.5A6,6,0,1,1,349.5,816.5A6,6,0,1,1,361.5,816.5"></path><path id="kity_path_438" fill="none" stroke="gray" d="M351,816.5L360,816.5"></path></g><path id="node_outline50" fill="none" stroke="none" d="M366.5,807.5h72a5,5,0,0,1,5,5v8a5,5,0,0,1,-5,5h-72a5,5,0,0,1,-5,-5v-8a5,5,0,0,1,5,-5z" stroke-width="3"></path><g id="node_text50" fill="black"><text id="kity_text_434" text-rendering="inherit" font-size="12" dy=".8em" y="810.5" x="366.5">单线的弱鸡🐓</text></g></g><g id="minder_node51"><g id="node_expander50" style="cursor: pointer;" display="none"><path id="kity_path_445" fill="white" stroke="gray" d="M459.5,790.5A6,6,0,1,1,447.5,790.5A6,6,0,1,1,459.5,790.5"></path><path id="kity_path_446" fill="none" stroke="gray"></path></g><path id="node_outline51" fill="none" stroke="none" d="M464.5,781.5h97a5,5,0,0,1,5,5v8a5,5,0,0,1,-5,5h-97a5,5,0,0,1,-5,-5v-8a5,5,0,0,1,5,-5z" stroke-width="3"></path><g id="node_text51" fill="black"><text id="kity_text_442" text-rendering="inherit" font-size="12" dy=".8em" y="784.5" x="464.5">无法利用多核CPU</text></g></g><g id="minder_node52"><g id="node_expander51" style="cursor: pointer;" display="none"><path id="kity_path_453" fill="white" stroke="gray" d="M459.5,816.5A6,6,0,1,1,447.5,816.5A6,6,0,1,1,459.5,816.5"></path><path id="kity_path_454" fill="none" stroke="gray"></path></g><path id="node_outline52" fill="none" stroke="none" d="M464.5,807.5h156a5,5,0,0,1,5,5v8a5,5,0,0,1,-5,5h-156a5,5,0,0,1,-5,-5v-8a5,5,0,0,1,5,-5z" stroke-width="3"></path><g id="node_text52" fill="black"><text id="kity_text_450" text-rendering="inherit" font-size="12" dy=".8em" y="810.5" x="464.5">错误会整个退出，健壮性不行</text></g></g><g id="minder_node53"><g id="node_expander52" style="cursor: pointer;" display="none"><path id="kity_path_461" fill="white" stroke="gray" d="M459.5,842.5A6,6,0,1,1,447.5,842.5A6,6,0,1,1,459.5,842.5"></path><path id="kity_path_462" fill="none" stroke="gray"></path></g><path id="node_outline53" fill="none" stroke="none" d="M464.5,833.5h206a5,5,0,0,1,5,5v8a5,5,0,0,1,-5,5h-206a5,5,0,0,1,-5,-5v-8a5,5,0,0,1,5,-5z" stroke-width="3"></path><g id="node_text53" fill="black"><text id="kity_text_458" text-rendering="inherit" font-size="12" dy=".8em" y="836.5" x="464.5">大量计算占用CPU导致无法调用异步IO</text></g></g><g id="minder_node54"><g id="node_expander53" style="cursor: pointer;" display="none"><path id="kity_path_469" fill="white" stroke="gray" d="M361.5,868.5A6,6,0,1,1,349.5,868.5A6,6,0,1,1,361.5,868.5"></path><path id="kity_path_470" fill="none" stroke="gray"></path></g><path id="node_outline54" fill="none" stroke="none" d="M366.5,859.5h195a5,5,0,0,1,5,5v8a5,5,0,0,1,-5,5h-195a5,5,0,0,1,-5,-5v-8a5,5,0,0,1,5,-5z" stroke-width="3"></path><g id="node_text54" fill="black"><text id="kity_text_466" text-rendering="inherit" font-size="12" dy=".8em" y="862.5" x="366.5">node采用和web worker相同的思路</text></g></g><g id="minder_node55"><g id="node_expander54" style="cursor: pointer;" display="none"><path id="kity_path_477" fill="white" stroke="gray" d="M481.5,973.5A6,6,0,1,1,469.5,973.5A6,6,0,1,1,481.5,973.5"></path><path id="kity_path_478" fill="none" stroke="gray"></path></g><path id="node_outline55" fill="none" stroke="none" d="M486.5,885.5h200a5,5,0,0,1,5,5v166a5,5,0,0,1,-5,5h-200a5,5,0,0,1,-5,-5v-166a5,5,0,0,1,5,-5z" stroke-width="3"></path><g id="node_text55" fill="black"><text id="kity_text_474" text-rendering="inherit" font-size="12" dy=".8em" y="1046.5" x="562.5">分支主题</text></g><image id="kity_image_479" xmlns:xlink="http://www.w3.org/1999/xlink" xlink:href="http://kityminder-img.gz.bcebos.com/aa5779d263744b1196d95022ae09a2d07d357354" x="486.5" y="888.5" width="200" height="153" xlink:title="node-libuv"></image></g><g id="minder_node56"><g id="node_expander55" style="cursor: pointer;" display="none"><path id="kity_path_486" fill="white" stroke="gray" d="M581.5,1112.5A6,6,0,1,1,569.5,1112.5A6,6,0,1,1,581.5,1112.5"></path><path id="kity_path_487" fill="none" stroke="gray"></path></g><path id="node_outline56" fill="none" stroke="none" d="M586.5,1103.5h96a5,5,0,0,1,5,5v8a5,5,0,0,1,-5,5h-96a5,5,0,0,1,-5,-5v-8a5,5,0,0,1,5,-5z" stroke-width="3"></path><g id="node_text56" fill="black"><text id="kity_text_483" text-rendering="inherit" font-size="12" dy=".8em" y="1106.5" x="586.5">菲波那切数列计算</text></g></g><g id="minder_node57"><g id="node_expander56" style="cursor: pointer;" display="none"><path id="kity_path_494" fill="white" stroke="gray" d="M581.5,1138.5A6,6,0,1,1,569.5,1138.5A6,6,0,1,1,581.5,1138.5"></path><path id="kity_path_495" fill="none" stroke="gray" d="M571,1138.5L580,1138.5"></path></g><path id="node_outline57" fill="none" stroke="none" d="M586.5,1129.5h157a5,5,0,0,1,5,5v8a5,5,0,0,1,-5,5h-157a5,5,0,0,1,-5,-5v-8a5,5,0,0,1,5,-5z" stroke-width="3"></path><g id="node_text57" fill="black"><text id="kity_text_491" text-rendering="inherit" font-size="12" dy=".8em" y="1132.5" x="586.5">写C++拓展更高效的利用CPU</text></g></g><g id="minder_node59"><g id="node_expander58" style="cursor: pointer;" display="none"><path id="kity_path_510" fill="white" stroke="gray" d="M581.5,1164.5A6,6,0,1,1,569.5,1164.5A6,6,0,1,1,581.5,1164.5"></path><path id="kity_path_511" fill="none" stroke="gray"></path></g><path id="node_outline59" fill="none" stroke="none" d="M586.5,1155.5h120a5,5,0,0,1,5,5v8a5,5,0,0,1,-5,5h-120a5,5,0,0,1,-5,-5v-8a5,5,0,0,1,5,-5z" stroke-width="3"></path><g id="node_text59" fill="black"><text id="kity_text_507" text-rendering="inherit" font-size="12" dy=".8em" y="1158.5" x="586.5">子进程的方式合理调度</text></g></g><g id="minder_node60"><g id="node_expander59" style="cursor: pointer;" display="none"><path id="kity_path_518" fill="white" stroke="gray" d="M460.5,1190.5A6,6,0,1,1,448.5,1190.5A6,6,0,1,1,460.5,1190.5"></path><path id="kity_path_519" fill="none" stroke="gray"></path></g><path id="node_outline60" fill="none" stroke="none" d="M465.5,1181.5h48a5,5,0,0,1,5,5v8a5,5,0,0,1,-5,5h-48a5,5,0,0,1,-5,-5v-8a5,5,0,0,1,5,-5z" stroke-width="3"></path><g id="node_text60" fill="black"><text id="kity_text_515" text-rendering="inherit" font-size="12" dy=".8em" y="1184.5" x="465.5">雪球财经</text></g></g><g id="minder_node61"><g id="node_expander60" style="cursor: pointer;" display="none"><path id="kity_path_526" fill="white" stroke="gray" d="M388.5,1216.5A6,6,0,1,1,376.5,1216.5A6,6,0,1,1,388.5,1216.5"></path><path id="kity_path_527" fill="none" stroke="gray"></path></g><path id="node_outline61" fill="none" stroke="none" d="M393.5,1207.5h242a5,5,0,0,1,5,5v8a5,5,0,0,1,-5,5h-242a5,5,0,0,1,-5,-5v-8a5,5,0,0,1,5,-5z" stroke-width="3"></path><g id="node_text61" fill="black"><text id="kity_text_523" text-rendering="inherit" font-size="12" dy=".8em" y="1210.5" x="393.5">阿里的NodeFox实现同时查多台MySql数据库</text></g></g><g id="minder_node62"><g id="node_expander61" style="cursor: pointer;" display="none"><path id="kity_path_534" fill="white" stroke="gray" d="M388.5,1242.5A6,6,0,1,1,376.5,1242.5A6,6,0,1,1,388.5,1242.5"></path><path id="kity_path_535" fill="none" stroke="gray"></path></g><path id="node_outline62" fill="none" stroke="none" d="M393.5,1233.5h262a5,5,0,0,1,5,5v8a5,5,0,0,1,-5,5h-262a5,5,0,0,1,-5,-5v-8a5,5,0,0,1,5,-5z" stroke-width="3"></path><g id="node_text62" fill="black"><text id="kity_text_531" text-rendering="inherit" font-size="12" dy=".8em" y="1236.5" x="393.5">阿里的ITier查询多个不同的数据库如查单个数据库</text></g></g></g></g></svg>